<svg width="256" height="256" viewBox="0 0 256 256" fill="none" xmlns="http://www.w3.org/2000/svg">
  <rect width="256" height="256" rx="28" fill="#161126"/>
  <defs>
    <filter id="goldGlow" x="-50%" y="-50%" width="200%" height="200%">
      <feGaussianBlur stdDeviation="3.5" result="blur"/>
      <feMerge>
        <feMergeNode in="blur"/>
        <feMergeNode in="SourceGraphic"/>
      </feMerge>
    </filter>
    <linearGradient id="goldLine" x1="128" y1="18" x2="128" y2="238" gradientUnits="userSpaceOnUse">
      <stop stop-color="#FFF7B3"/>
      <stop offset="0.45" stop-color="#FFD54A"/>
      <stop offset="1" stop-color="#FF9F00"/>
    </linearGradient>
  </defs>

  <g filter="url(#goldGlow)" stroke="url(#goldLine)" stroke-width="5" stroke-linecap="round" stroke-linejoin="round">
    <path d="M128 226V38"/>
    <path d="M128 66L92 102"/>
    <path d="M128 86L76 138"/>
    <path d="M128 102L62 168"/>
    <path d="M128 66L164 102"/>
    <path d="M128 86L180 138"/>
    <path d="M128 102L194 168"/>
    <path d="M92 102V152"/>
    <path d="M164 102V152"/>
    <path d="M76 138H180"/>
    <path d="M62 168H194"/>
  </g>

  <g filter="url(#goldGlow)" fill="none" stroke="url(#goldLine)" stroke-width="4" stroke-linecap="round" stroke-linejoin="round">
    <path d="M128 18C118 30 118 44 128 54C138 44 138 30 128 18Z"/>
    <path d="M80 58C68 62 62 74 66 86C80 88 90 82 96 70C92 64 88 60 80 58Z"/>
    <path d="M110 46C98 50 92 62 96 74C110 76 120 70 126 58C122 52 118 48 110 46Z"/>
    <path d="M176 58C164 60 156 68 160 82C174 84 184 78 190 66C186 62 182 60 176 58Z"/>
    <path d="M146 46C134 48 126 56 130 70C144 72 154 66 160 54C156 50 152 48 146 46Z"/>
    <path d="M54 112C42 116 36 128 40 140C54 142 64 136 70 124C66 118 62 114 54 112Z"/>
    <path d="M94 108C82 112 76 124 80 136C94 138 104 132 110 120C106 114 102 110 94 108Z"/>
    <path d="M202 112C190 114 182 122 186 136C200 138 210 132 216 120C212 116 208 114 202 112Z"/>
    <path d="M162 108C150 110 142 118 146 132C160 134 170 128 176 116C172 112 168 110 162 108Z"/>
    <path d="M56 166C44 170 38 182 42 194C56 196 66 190 72 178C68 172 64 168 56 166Z"/>
    <path d="M200 166C188 168 180 176 184 190C198 192 208 186 214 174C210 170 206 168 200 166Z"/>
  </g>

  <g filter="url(#goldGlow)" fill="#FFB300">
    <circle cx="128" cy="64" r="2.2"/>
    <circle cx="128" cy="74" r="2.2"/>
    <circle cx="128" cy="84" r="2.2"/>
    <circle cx="128" cy="94" r="2.2"/>
    <circle cx="128" cy="104" r="2.2"/>
    <circle cx="128" cy="114" r="2.2"/>
    <circle cx="128" cy="124" r="2.2"/>
    <circle cx="128" cy="134" r="2.2"/>
    <circle cx="128" cy="144" r="2.2"/>
    <circle cx="128" cy="154" r="2.2"/>
    <circle cx="128" cy="164" r="2.2"/>
    <circle cx="128" cy="174" r="2.2"/>
    <circle cx="128" cy="184" r="2.2"/>
    <circle cx="128" cy="194" r="2.2"/>
    <circle cx="128" cy="204" r="2.2"/>
    <circle cx="128" cy="214" r="2.2"/>
    <circle cx="128" cy="224" r="2.2"/>
    <circle cx="128" cy="234" r="2.2"/>
  </g>

  <g opacity="0.95" fill="#FFB300">
    <circle cx="90" cy="52" r="1.5"/>
    <circle cx="170" cy="48" r="1.5"/>
    <circle cx="60" cy="128" r="1.6"/>
    <circle cx="200" cy="132" r="1.6"/>
    <circle cx="80" cy="186" r="1.8"/>
    <circle cx="176" cy="190" r="1.8"/>
    <circle cx="114" cy="34" r="1.2"/>
    <circle cx="142" cy="36" r="1.2"/>
    <circle cx="48" cy="180" r="1.4"/>
    <circle cx="208" cy="176" r="1.4"/>
    <circle cx="130" cy="28" r="1.4"/>
    <circle cx="132" cy="246" r="1.4"/>
  </g>
</svg>
